<svg fill="#FFFFFF" xmlns="http://www.w3.org/2000/svg"  viewBox="0 0 128 128" width="100px" height="100px"><path d="M 14 1 C 6.8 1 1 6.8 1 14 L 1 66 C 1 67.7 2.3 69 4 69 C 5.7 69 7 67.7 7 66 L 7 35 L 74 35 C 75.7 35 77 33.7 77 32 C 77 30.3 75.7 29 74 29 L 7 29 L 7 14 C 7 10.1 10.1 7 14 7 L 114 7 C 117.9 7 121 10.1 121 14 L 121 114 C 121 117.9 117.9 121 114 121 L 112 121 L 112 76 C 112 74.3 110.7 73 109 73 L 91 73 C 89.3 73 88 74.3 88 76 L 88 121 L 77 121 L 77 96 C 77 94.3 75.7 93 74 93 L 56 93 C 54.3 93 53 94.3 53 96 L 53 121 L 42 121 L 42 106 C 42 104.3 40.7 103 39 103 L 21 103 C 19.3 103 18 104.3 18 106 L 18 121 L 4 121 C 2.3 121 1 122.3 1 124 C 1 125.7 2.3 127 4 127 L 109 127 L 114 127 C 121.2 127 127 121.2 127 114 L 127 14 C 127 6.8 121.2 1 114 1 L 14 1 z M 18 15 C 16.3 15 15 16.3 15 18 C 15 19.7 16.3 21 18 21 L 22 21 C 23.7 21 25 19.7 25 18 C 25 16.3 23.7 15 22 15 L 18 15 z M 34 15 C 32.3 15 31 16.3 31 18 C 31 19.7 32.3 21 34 21 L 38 21 C 39.7 21 41 19.7 41 18 C 41 16.3 39.7 15 38 15 L 34 15 z M 98.701172 19.976562 C 97.524609 20.09375 96.474609 20.899609 96.099609 22.099609 C 84.299609 59.599609 49.300781 81.1 20.800781 83 C 19.100781 83.1 17.9 84.499219 18 86.199219 C 18.1 87.799219 19.4 89 21 89 L 21.199219 89 C 51.699219 87 89.200391 64.000391 101.90039 23.900391 C 102.40039 22.300391 101.50039 20.599609 99.900391 20.099609 C 99.500391 19.974609 99.093359 19.9375 98.701172 19.976562 z M 94 79 L 106 79 L 106 121 L 94 121 L 94 79 z M 59 99 L 71 99 L 71 121 L 59 121 L 59 99 z M 24 109 L 36 109 L 36 121 L 24 121 L 24 109 z"/></svg>