<?xml version="1.0" encoding="utf-8"?>
<svg viewBox="0 0 64 64" width="100px" height="100px" xmlns="http://www.w3.org/2000/svg">
  <linearGradient id="ojxs_RS1~BeeBtSHUxpmva" x1="39.938" x2="39.938" y1="30" y2="39" gradientUnits="userSpaceOnUse" spreadMethod="reflect">
    <stop offset="0" stop-color="#ffffff"/>
    <stop offset="1" stop-color="#ffffff"/>
  </linearGradient>
  <path fill="url(#ojxs_RS1~BeeBtSHUxpmva)" d="M 41.074 29.76 C 37.609 29.76 35.444 34.046 37.176 37.474 C 37.98 39.065 39.465 40.046 41.074 40.046 C 44.537 40.046 46.703 35.76 44.97 32.331 C 44.167 30.741 42.681 29.76 41.074 29.76 Z"/>
  <linearGradient id="ojxs_RS1~BeeBtSHUxpmvb" x1="31.999" x2="31.999" y1="10.961" y2="53" gradientUnits="userSpaceOnUse" spreadMethod="reflect">
    <stop offset="0" stop-color="#FFFFFF"/>
    <stop offset="1" stop-color="#FFFFFF"/>
  </linearGradient>
  <path fill="url(#ojxs_RS1~BeeBtSHUxpmvb)" d="M 55.16 13.688 C 49.655 9.264 40.276 8.06 39.876 8.01 C 39.378 7.945 38.9 8.218 38.694 8.677 C 38.665 8.74 38.073 10.083 37.804 11.855 C 35.528 11.557 33.502 11.473 31.982 11.473 C 30.412 11.473 28.306 11.56 25.937 11.884 C 25.671 10.098 25.073 8.739 25.044 8.676 C 24.837 8.217 24.359 7.948 23.855 8.009 C 23.47 8.059 14.345 9.266 8.783 13.738 C 5.854 16.445 0 32.189 0 45.76 C 0 45.957 0.052 46.153 0.15 46.326 C 4.067 53.207 15.645 55.963 18.25 56.046 C 18.263 56.046 18.274 56.046 18.286 56.046 C 18.633 56.046 18.962 55.889 19.178 55.618 L 23.173 50.625 C 25.737 51.135 28.684 51.476 32.028 51.476 C 35.356 51.476 38.284 51.138 40.835 50.632 L 44.825 55.618 C 45.041 55.889 45.369 56.046 45.717 56.046 C 45.729 56.046 45.739 56.046 45.752 56.046 C 48.351 55.963 59.913 53.195 63.85 46.277 C 63.948 46.107 64 45.912 64 45.711 C 64.001 32.165 58.147 16.444 55.16 13.688 Z M 46.232 53.719 L 43.305 50.061 C 49.746 48.348 53.097 45.666 53.299 45.501 C 53.786 45.1 53.855 44.383 53.458 43.895 C 53.059 43.407 52.34 43.334 51.851 43.732 C 51.784 43.786 44.99 49.189 32.028 49.189 C 19.079 49.189 12.231 43.796 12.149 43.73 C 11.661 43.332 10.941 43.405 10.543 43.896 C 10.145 44.386 10.217 45.106 10.709 45.504 C 10.91 45.669 14.274 48.34 20.706 50.051 L 17.771 53.72 C 14.451 53.35 5.502 50.681 2.29 45.449 C 2.378 32.525 8.022 17.558 10.277 15.468 C 14.331 12.211 20.885 10.828 23.256 10.418 C 23.407 10.889 23.577 11.537 23.682 12.259 C 20.263 12.92 16.512 14.109 13.115 16.217 C 12.578 16.549 12.413 17.253 12.746 17.789 C 13.08 18.328 13.783 18.493 14.318 18.158 C 20.49 14.331 28.034 13.759 31.982 13.759 C 35.944 13.759 43.512 14.331 49.686 18.159 C 49.873 18.276 50.081 18.331 50.286 18.331 C 50.667 18.331 51.043 18.139 51.26 17.79 C 51.593 17.254 51.427 16.55 50.89 16.218 C 47.412 14.059 43.556 12.867 40.063 12.215 C 40.169 11.509 40.337 10.877 40.485 10.414 C 42.895 10.816 49.639 12.184 53.667 15.419 C 55.982 17.558 61.623 32.505 61.713 45.403 C 58.485 50.665 49.547 53.349 46.232 53.719 Z"/>
  <linearGradient id="ojxs_RS1~BeeBtSHUxpmvc" x1="24" x2="24" y1="30" y2="39" gradientUnits="userSpaceOnUse" spreadMethod="reflect">
    <stop offset="0" stop-color="#ffffff"/>
    <stop offset="1" stop-color="#ffffff"/>
  </linearGradient>
  <path fill="url(#ojxs_RS1~BeeBtSHUxpmvc)" d="M 22.858 29.76 C 19.339 29.76 17.139 34.046 18.9 37.474 C 19.715 39.065 21.224 40.046 22.858 40.046 C 26.377 40.046 28.577 35.76 26.817 32.331 C 26.001 30.741 24.49 29.76 22.858 29.76 Z"/>
</svg>