<svg fill="#FFFFFF" xmlns="http://www.w3.org/2000/svg"  viewBox="0 0 128 128" width="100px" height="100px"><path d="M 24 1 C 11.32 1 1 11.32 1 24 L 1 44 C 1 45.66 2.34 47 4 47 C 5.66 47 7 45.66 7 44 L 7 24 C 7 14.63 14.63 7 24 7 L 104 7 C 113.37 7 121 14.63 121 24 L 121 35 C 121 36.66 122.34 38 124 38 C 125.66 38 127 36.66 127 35 L 127 24 C 127 11.32 116.68 1 104 1 L 24 1 z M 109 46 C 99.08 46 91 54.07 91 64 C 91 73.93 99.08 82 109 82 L 124 82 C 125.66 82 127 80.66 127 79 L 127 49 C 127 47.34 125.66 46 124 46 L 109 46 z M 39 51 C 17.34 51 1 58.74 1 69 C 1 79.26 17.34 87 39 87 C 60.66 87 77 79.26 77 69 C 77 58.74 60.66 51 39 51 z M 109 52 L 121 52 L 121 76 L 109 76 C 102.38 76 97 70.62 97 64 C 97 57.38 102.38 52 109 52 z M 39 57 C 57.31 57 71 63.34 71 69 C 71 74.66 57.31 81 39 81 C 20.69 81 7 74.66 7 69 C 7 63.34 20.69 57 39 57 z M 4 86 C 2.34 86 1 87.34 1 89 C 1 99.26 17.34 107 39 107 C 60.66 107 77 99.26 77 89 C 77 87.34 75.66 86 74 86 C 72.34 86 71 87.34 71 89 C 71 94.66 57.31 101 39 101 C 20.69 101 7 94.66 7 89 C 7 87.34 5.66 86 4 86 z M 124 90 C 122.34 90 121 91.34 121 93 L 121 104 C 121 113.37 113.37 121 104 121 L 84 121 C 82.34 121 81 122.34 81 124 C 81 125.66 82.34 127 84 127 L 104 127 C 116.68 127 127 116.68 127 104 L 127 93 C 127 91.34 125.66 90 124 90 z M 4 106 C 2.34 106 1 107.34 1 109 C 1 119.26 17.34 127 39 127 C 60.66 127 77 119.26 77 109 C 77 107.34 75.66 106 74 106 C 72.34 106 71 107.34 71 109 C 71 114.66 57.31 121 39 121 C 20.69 121 7 114.66 7 109 C 7 107.34 5.66 106 4 106 z"/></svg>